# xmcd
#
# Track frame offsets:
#	150
#	10473
#	20445
#	32650
#	40458
#	59080
#	69208
#	81390
#	90693
#	100823
#	109845
#	122933
#	134480
#	142770
#	152528
#	163875
#	174275
#	187020
#	198120
#	211745
#	221665
#	229803
#	237343
#	253638
#	261508
#
# Disc length: 3600 seconds
#
# Revision: 3
# Processed by: cddbd v1.4PL0 Copyright (c) Steve Scherf et al.
# Submitted via: MusicManager 7.0.1.0 
#
DISCID=680e0e19
DTITLE=Various Artist - 101 Blues and Soul Classics 1
DYEAR=1989
DGENRE=
TTITLE0=Gardner, Don  and Dee Dee Ford - I Need Your Loving
TTITLE1=Don and Juan - Whet s Jour Name
TTITLE2=Impressions, The  - For Your Precious Love feat. Chris Mayfield
TTITLE3=Dorsey, Lee  - Ya Ya
TTITLE4=Swamp Dogg - Mama's Baby Dady's Maybe
TTITLE5=Thomas, Irma  - I Wish Someone Would Care
TTITLE6=Tarheel Slim and Little Ann - It'To Late
TTITLE7=Foxx, Inez and Charlie - Mocking Brid
TTITLE8=Turner, Sammy  - Lavender Blue
TTITLE9=Ray, James  - If You Gotta Make A Fool Of Somebody
TTITLE10=James, Elmore  - Dust My Blues
TTITLE11=Hooker, John Lee  - Boom Boom
TTITLE12=Clovers, The  - Love potion No. 9
TTITLE13=Chantels - Look In My Eyes
TTITLE14=Cooke, Sam - When i Fall in Love
TTITLE15=Esquires - Get On Up
TTITLE16=Duke, Doris  - To The other Woman
TTITLE17=Price, Lloyd  - I`m Gona Get Married
TTITLE18=Moonglows - most Of Fall
TTITLE19=Eldorados - At My Front Door
TTITLE20=Crests - The Angels Listend in
TTITLE21=Church, Eugene  - Pretty girls Ererywhere
TTITLE22=Simone, Nina  - My Baby Just Cares For Me
TTITLE23=Marvin and Johnny - Cherry Pie
TTITLE24=Little Richard - Short Fat Fanny
EXTD=
EXTT0=
EXTT1=
EXTT2=
EXTT3=
EXTT4=
EXTT5=
EXTT6=
EXTT7=
EXTT8=
EXTT9=
EXTT10=
EXTT11=
EXTT12=
EXTT13=
EXTT14=
EXTT15=
EXTT16=
EXTT17=
EXTT18=
EXTT19=
EXTT20=
EXTT21=
EXTT22=
EXTT23=
EXTT24=
PLAYORDER=
